<svg xmlns="http://www.w3.org/2000/svg" viewBox="0 0 256.14 78.76"><defs><style>.cls-1{fill:#3b3b3b;}</style></defs><title>Asset 4</title><g id="Layer_2" data-name="Layer 2"><g id="Left_menu" data-name="Left menu"><path class="cls-1" d="M110.84,0c.7.11,1.4.21,2.1.35a19.38,19.38,0,0,1,9.91,5.2,24.76,24.76,0,0,1,7,13.2A36.25,36.25,0,0,1,129,37a23.94,23.94,0,0,1-6.72,10.83,21.59,21.59,0,0,1-11.73,5.6A20,20,0,0,1,99.07,52a12.62,12.62,0,0,1-5-4,2.87,2.87,0,0,0-.28-.3V74.49H77.71v-.56q0-28.67,0-57.33c0-3.24-.11-6.48-.19-9.73,0-1.74-.15-3.48-.22-5.22,0-.16,0-.31,0-.49H91.19q.38,3.57.74,7.13l.12,0c.09-.11.18-.2.26-.31A18.64,18.64,0,0,1,104.42.43c.85-.16,1.72-.23,2.58-.35a1.67,1.67,0,0,0,.32-.08ZM93.75,27.17h-.07c0,1.81,0,3.63.17,5.44a9.45,9.45,0,0,0,3.6,6.68,9.25,9.25,0,0,0,7.3,2,9.53,9.53,0,0,0,6.93-4.17,14.19,14.19,0,0,0,2.17-5.09,23.93,23.93,0,0,0,.43-7.5,17.42,17.42,0,0,0-1.9-6.76A9.64,9.64,0,0,0,100.81,13a10.35,10.35,0,0,0-7,9.48C93.67,24,93.75,25.59,93.75,27.17Z"/><path class="cls-1" d="M181.16,52.76H165.52V52.2q0-13.77,0-27.55a15.56,15.56,0,0,0-1.11-6.24c-1.49-3.46-4.43-4.7-7.78-4.27a8.59,8.59,0,0,0-7.39,7.38,14.22,14.22,0,0,0-.11,2q0,14.35,0,28.71v.57H133.48c-.2-16.73.3-33.45-.41-50.21h13.56c.08.76.17,1.52.25,2.28.15,1.46.29,2.93.44,4.39a1.08,1.08,0,0,0,.15.28c.11-.08.25-.13.32-.23A17,17,0,0,1,150.6,6,17.9,17.9,0,0,1,160,1.63a19.45,19.45,0,0,1,10.08,1,15.88,15.88,0,0,1,9.12,9.3,23.91,23.91,0,0,1,1.71,7.3c.13,1.54.2,3.09.2,4.63q0,14.16,0,28.32Z"/><path class="cls-1" d="M41.51,52.76H25.91c-.21-16.74.3-33.46-.42-50.21H39.06l.73,7.05a3.14,3.14,0,0,0,.43-.35,17.53,17.53,0,0,1,11-7.38,19.35,19.35,0,0,1,11.34.75,15.69,15.69,0,0,1,8.91,8.77,23.46,23.46,0,0,1,1.89,7.4c.15,1.66.24,3.33.25,5q0,14.19,0,28.37v.59H57.91v-.58q0-13.89,0-27.77a15.3,15.3,0,0,0-1-5.71,6.62,6.62,0,0,0-5.45-4.52,8.29,8.29,0,0,0-8.92,4.59,8.76,8.76,0,0,0-1,4.25q0,14.58,0,29.17Z"/><path class="cls-1" d="M190.29,16.65c.45-.74.88-1.49,1.35-2.21a29.82,29.82,0,0,1,8-8.53,24.73,24.73,0,0,1,11.11-4.29,28.44,28.44,0,0,1,14.9,1.91,13.75,13.75,0,0,1,6.09,4.65,11.29,11.29,0,0,1-15.34,16,28.55,28.55,0,0,1-5.83-5,21.88,21.88,0,0,0-4.4-3.92,12.13,12.13,0,0,0-12.41-.56c-1.08.53-2.08,1.23-3.12,1.85l-.3.21Z"/><path class="cls-1" d="M236,12.11c.46.85,1,1.68,1.38,2.55a30.88,30.88,0,0,1,3,9,24.89,24.89,0,0,1-1.32,13.1,28.21,28.21,0,0,1-9.77,12.9,13,13,0,0,1-6.09,2.58,11,11,0,0,1-10.08-3.77,10.51,10.51,0,0,1-2.76-7.24,11.06,11.06,0,0,1,6-10.1,29.4,29.4,0,0,1,8.06-2.78,18.15,18.15,0,0,0,5.85-2.22,12.1,12.1,0,0,0,5.68-8.94A25.77,25.77,0,0,0,236,12.11Z"/><path class="cls-1" d="M217.43,54.07c-1.72-.15-3.45-.23-5.16-.45a28,28,0,0,1-8.66-2.55,25.71,25.71,0,0,1-10.79-9.69,28.49,28.49,0,0,1-4.17-11,13.74,13.74,0,0,1,1.15-8.85,10.9,10.9,0,0,1,8.55-5.94,11.25,11.25,0,0,1,12.44,8.71,15.2,15.2,0,0,1,.09,5,42.12,42.12,0,0,1-1.9,7.32,16.2,16.2,0,0,0-.81,5.35,11.73,11.73,0,0,0,3.2,7.7,18.27,18.27,0,0,0,5.44,3.9l.65.31Z"/><path class="cls-1" d="M.4,51.49V48H.9c4.15,0,8.3,0,12.44,0a7.77,7.77,0,0,0,3.25-.68,3.7,3.7,0,0,0,2.3-3.55,3.87,3.87,0,0,0-2.21-3.85,7.84,7.84,0,0,0-3.53-.74H.4V35.65H.88c4,0,8,0,12.06,0a11.31,11.31,0,0,1,4.79,1,7,7,0,0,1,4.1,6,9.77,9.77,0,0,1-.22,3.49A6.56,6.56,0,0,1,16.48,51a14.85,14.85,0,0,1-3.38.44c-4,.05-8.1,0-12.15,0Z"/><path class="cls-1" d="M21.57,2.66c0,1.19,0,2.32,0,3.45,0,.29-.18.31-.37.37-1.85.63-3.69,1.26-5.55,1.88a.59.59,0,0,0-.5.67c0,1.89,0,3.78,0,5.67a.5.5,0,0,0,.41.57c1.88.6,3.74,1.23,5.62,1.83a.49.49,0,0,1,.39.58c0,1,0,2.07,0,3.17L18.92,20c-6-2-12-4.1-18.06-6.13a.59.59,0,0,1-.49-.69c0-1,0-1.91,0-2.87a.45.45,0,0,1,.37-.51L13.21,5.51,21.1,2.82ZM4.92,11.85l7.3,2.42V9.4Z"/><path class="cls-1" d="M1.31,21.9l2.94,1a6.93,6.93,0,0,0-1.1,2.88A6,6,0,0,0,3.3,28.5a2.47,2.47,0,0,0,2,1.82,2.35,2.35,0,0,0,2.53-1.05A19,19,0,0,0,9.2,26.61a13.45,13.45,0,0,1,2.13-3.69,6.06,6.06,0,0,1,9.61,1.46,9.37,9.37,0,0,1,.92,4.86,10.92,10.92,0,0,1-1.09,4.37c-.39.79-.4.78-1.24.52l-2.22-.71c.24-.45.5-.85.7-1.29a7.52,7.52,0,0,0,.58-5.33,2.69,2.69,0,0,0-2.21-2.07,2.77,2.77,0,0,0-3,1.25,17.91,17.91,0,0,0-1.2,2.4,13.91,13.91,0,0,1-1.78,3.31A5.53,5.53,0,0,1,1,30.82,9.43,9.43,0,0,1,1.1,22.2,1.74,1.74,0,0,1,1.21,22Z"/><path class="cls-1" d="M14.54,69.6V59.75H17V74.09c-.92,0-1.82,0-2.71,0-.11,0-.25-.17-.31-.29-1.52-3.35-3.22-6.63-4.47-10.1,0,0,0,0,0-.06V74.05H7V59.72c1,0,2,0,3,0,.12,0,.28.25.35.42A84.41,84.41,0,0,1,14.54,69.6Z"/><path class="cls-1" d="M198.46,74.09c-.91,0-1.8,0-2.68,0-.1,0-.24-.14-.29-.25q-2.22-5-4.42-10l-.11-.23V74.06h-2.43V59.73c1,0,2,0,3,0,.1,0,.23.19.29.32A92.24,92.24,0,0,1,196,69.49a.23.23,0,0,0,0,.07c0-3.22-.09-6.5-.14-9.81h2.53Z"/><path class="cls-1" d="M165.73,75.36a14.65,14.65,0,0,0,1.88.61,2.26,2.26,0,0,0,2.95-2.39c0-.24,0-.49,0-.78a.92.92,0,0,0-.2.16,3,3,0,0,1-4.24.29,4.89,4.89,0,0,1-1.58-3.19,7.19,7.19,0,0,1,.88-4.84,3.45,3.45,0,0,1,3.83-1.7c.59.16.91.41,1.62,1.27A5,5,0,0,1,171,64c0-.12.15-.3.23-.3.7,0,1.4,0,2.14,0v1c0,2.59,0,5.18,0,7.76a13.7,13.7,0,0,1-.32,2.93,4,4,0,0,1-3.87,3.24,7,7,0,0,1-3.48-.53c-.3-.14-.42-.3-.32-.65C165.47,76.67,165.59,76,165.73,75.36Zm4.84-6.6h-.07c0-.43,0-.86,0-1.29a1.7,1.7,0,0,0-1.2-1.55,1.47,1.47,0,0,0-1.62.92,4.38,4.38,0,0,0,0,3.85,1.43,1.43,0,0,0,1.47.9,1.5,1.5,0,0,0,1.28-1.22C170.51,69.85,170.52,69.3,170.57,68.76Z"/><path class="cls-1" d="M225.18,71c.42-2.48.84-4.93,1.25-7.37h2.71c-.19.76-.37,1.49-.56,2.22-.66,2.58-1.34,5.16-2,7.75a.52.52,0,0,1-.64.47,14.77,14.77,0,0,0-1.63,0c-.33,0-.47-.08-.54-.42-.39-2-.81-4-1.22-6a2.19,2.19,0,0,0-.08-.27c-.17.92-.31,1.78-.49,2.63-.28,1.24-.59,2.47-.87,3.71a.31.31,0,0,1-.38.29c-.67,0-1.34,0-2,0a.4.4,0,0,1-.32-.23c-.85-3.37-1.67-6.75-2.51-10.18h2.82L219.9,71l0,0c.05-.24.11-.49.16-.73q.64-3.18,1.31-6.37c0-.2.12-.32.37-.31h1.58c.24,0,.31.09.36.31.44,2.25.9,4.5,1.36,6.75C225.11,70.8,225.15,70.91,225.18,71Z"/><path class="cls-1" d="M117.23,74.07h-2.72V73.6c0-1.67,0-3.34,0-5a7.72,7.72,0,0,0-.23-1.65,1.09,1.09,0,0,0-.92-.85,1.26,1.26,0,0,0-1.28.51,2.16,2.16,0,0,0-.4,1.37c0,1.86,0,3.72,0,5.58v.52h-2.74V59h2.73v5.68a10.38,10.38,0,0,1,1.66-1.07,2.58,2.58,0,0,1,3.19,1.15,5.58,5.58,0,0,1,.73,2.87c0,2.07,0,4.14,0,6.22C117.25,73.89,117.24,74,117.23,74.07Z"/><path class="cls-1" d="M101.38,69.05v5h-2.7c0-.15,0-.29,0-.42q0-6.66,0-13.31c0-.36.1-.47.46-.52a16.3,16.3,0,0,1,4.83-.07,4,4,0,0,1,3.37,3.95,9.29,9.29,0,0,1-.21,2.17,4,4,0,0,1-3.55,3A16.68,16.68,0,0,1,101.38,69.05Zm0-2.64.44.08a2.25,2.25,0,0,0,2.74-1.72,2,2,0,0,0-1.45-2.6,5.86,5.86,0,0,0-1.45,0c-.1,0-.26.18-.27.28C101.37,63.76,101.37,65.07,101.37,66.41Z"/><path class="cls-1" d="M247.26,59H250v9c.75-1.34,1.47-2.59,2.14-3.85a.8.8,0,0,1,.86-.51c.88,0,1.76,0,2.75,0l-.92,1.25c-.66.89-1.32,1.8-2,2.68a.51.51,0,0,0,0,.68c1,1.76,2,3.53,3.06,5.3.1.16.18.32.31.55-.88,0-1.69,0-2.49,0a1.1,1.1,0,0,1-1.29-.77c-.49-1.17-1.11-2.28-1.7-3.46a2.38,2.38,0,0,0-.7,1.66c.06.83,0,1.68,0,2.54h-2.71Z"/><path class="cls-1" d="M174.43,63.63c1,0,1.92,0,2.84,0,.1,0,.24.17.27.29q.78,3,1.53,6a1.84,1.84,0,0,0,.2.55l1.44-6.88h2.94c-.1.35-.18.68-.28,1-1,3.11-1.92,6.24-2.94,9.34a8.5,8.5,0,0,1-2.06,3.52,4.51,4.51,0,0,1-2.18,1.22c-.2,0-.32,0-.37-.2-.16-.82-.33-1.64-.5-2.46a10.36,10.36,0,0,0,1-.51,4.79,4.79,0,0,0,.87-.75,1.73,1.73,0,0,0,.38-1.92c-1-2.92-2-5.86-3-8.79C174.53,64,174.49,63.84,174.43,63.63Z"/><path class="cls-1" d="M58.6,74.09H55.85V73.6c0-1.8,0-3.6,0-5.41a3.8,3.8,0,0,0-.27-1.41,1.15,1.15,0,0,0-2-.31A2.08,2.08,0,0,0,53,68c0,1.86,0,3.72,0,5.58v.48H50.28V63.63c.71,0,1.42,0,2.13,0,.08,0,.2.18.22.28,0,.35.07.7.1,1.11.24-.28.41-.52.62-.73a2.89,2.89,0,0,1,4.75.82,6,6,0,0,1,.52,2.5c0,2.08,0,4.15,0,6.22C58.62,73.91,58.61,74,58.6,74.09Z"/><path class="cls-1" d="M158.72,63.41a4.16,4.16,0,0,1,4,2.72,7,7,0,0,1,0,5.38,4.41,4.41,0,0,1-8.37-.44,7.39,7.39,0,0,1,.07-4.51A4.35,4.35,0,0,1,158.72,63.41Zm1.8,5.49c-.19-.76-.33-1.51-.58-2.23a1.3,1.3,0,0,0-1.24-.9,1.35,1.35,0,0,0-1.32.87,5.19,5.19,0,0,0,0,4.47,1.36,1.36,0,0,0,1.32.87,1.33,1.33,0,0,0,1.24-.91C160.18,70.38,160.32,69.65,160.52,68.9Z"/><path class="cls-1" d="M238.82,68.8a6.3,6.3,0,0,1-.61,3A4.24,4.24,0,0,1,234,74.32a4.07,4.07,0,0,1-3.83-2.7,6.83,6.83,0,0,1,.14-5.73,4.19,4.19,0,0,1,4.16-2.47,4,4,0,0,1,3.89,2.83,17.75,17.75,0,0,1,.59,2.52Zm-6.47.07a22.33,22.33,0,0,0,.58,2.18,1.38,1.38,0,0,0,2.6,0,5.36,5.36,0,0,0,0-4.4,1.35,1.35,0,0,0-1.26-.89,1.31,1.31,0,0,0-1.3.88C232.7,67.37,232.55,68.12,232.35,68.87Z"/><path class="cls-1" d="M48.7,68.81a6.72,6.72,0,0,1-1.14,3.73,4.22,4.22,0,0,1-4.08,1.76A4.1,4.1,0,0,1,40,71.61a7,7,0,0,1,.1-5.62,4.34,4.34,0,0,1,4.61-2.55,4.26,4.26,0,0,1,3.66,3.27A20.45,20.45,0,0,1,48.7,68.81Zm-2.81.06c-.17-.72-.3-1.42-.52-2.09a1.35,1.35,0,0,0-1.31-1,1.42,1.42,0,0,0-1.37,1,5.37,5.37,0,0,0,0,4.25A1.42,1.42,0,0,0,44,72a1.37,1.37,0,0,0,1.32-1C45.59,70.31,45.72,69.59,45.89,68.87Z"/><path class="cls-1" d="M148.06,68.83a5.91,5.91,0,0,1-1.6,4.27,4.37,4.37,0,0,1-7.12-1.51,7,7,0,0,1,0-5.27,4.42,4.42,0,0,1,8.51.74C148,67.64,148,68.24,148.06,68.83Zm-2.77,0c-.19-.73-.33-1.49-.59-2.2a1.28,1.28,0,0,0-1.28-.9,1.39,1.39,0,0,0-1.3.9,5.32,5.32,0,0,0,0,4.35,1.41,1.41,0,0,0,1.34,1,1.33,1.33,0,0,0,1.29-1C145,70.34,145.1,69.62,145.29,68.87Z"/><path class="cls-1" d="M137.19,74.07h-2.74v-.48c0-1.75,0-3.49,0-5.24a4.51,4.51,0,0,0-.26-1.5,1.17,1.17,0,0,0-2.09-.27,2.5,2.5,0,0,0-.46,1.3c0,1.9,0,3.8,0,5.7v.49h-2.74V63.66h2.3l.15,1.38c.11-.14.18-.22.25-.32a3,3,0,0,1,2.94-1.27,2.66,2.66,0,0,1,2.25,1.93,7.92,7.92,0,0,1,.42,2.26C137.22,69.76,137.19,71.89,137.19,74.07Z"/><path class="cls-1" d="M65.34,67.07a1.32,1.32,0,0,0-1.5-1.39,4.54,4.54,0,0,0-2.51.77c-.16-.67-.32-1.3-.45-1.94a.33.33,0,0,1,.16-.28,6,6,0,0,1,4.71-.58A3.35,3.35,0,0,1,68,66.71a9.53,9.53,0,0,1,.08,1.41c0,1,0,2,0,3v3c-.65,0-1.4,0-2.15,0-.08,0-.2-.15-.22-.24a4.92,4.92,0,0,1-.13-.77,3.13,3.13,0,0,1-1.79,1.17A2.8,2.8,0,0,1,60.3,72a3.73,3.73,0,0,1,3.2-4.69C64.1,67.19,64.71,67.15,65.34,67.07Zm.13,2.12a3.25,3.25,0,0,0-2,.45,1.51,1.51,0,0,0-.3,2,1.17,1.17,0,0,0,1.72,0,1.65,1.65,0,0,0,.45-.8A14.19,14.19,0,0,0,65.47,69.19Z"/><path class="cls-1" d="M26.61,74.07H24.17l-.18-.9a8.48,8.48,0,0,1-1.17.85,2.85,2.85,0,0,1-4.15-2.17,3.72,3.72,0,0,1,3.17-4.53c.61-.13,1.24-.17,1.86-.25a1.15,1.15,0,0,0-1-1.33,3.93,3.93,0,0,0-2.45.4l-.55.29c-.16-.64-.32-1.24-.45-1.85a.42.42,0,0,1,.14-.34,5.84,5.84,0,0,1,4.92-.52,3.28,3.28,0,0,1,2,2.81,11.13,11.13,0,0,1,.11,1.53c0,1.75,0,3.49.07,5.24C26.55,73.54,26.59,73.78,26.61,74.07ZM23.8,69.19a2.71,2.71,0,0,0-1.84.43,1.81,1.81,0,0,0-.61.92,1.14,1.14,0,0,0,.46,1.32,1,1,0,0,0,1.31-.11,2.35,2.35,0,0,0,.66-1A6.89,6.89,0,0,0,23.8,69.19Z"/><path class="cls-1" d="M202.87,69.89a2.06,2.06,0,0,0,2,2,6.4,6.4,0,0,0,2.79-.42c.12.69.24,1.35.34,2a.41.41,0,0,1-.2.3,6.41,6.41,0,0,1-5.08.13,4.06,4.06,0,0,1-2.35-3.08,6.86,6.86,0,0,1,1.2-6,3.78,3.78,0,0,1,6.41,1,8.32,8.32,0,0,1,.48,4c0,.28-.19.28-.38.27l-4.42,0C203.44,69.88,203.17,69.89,202.87,69.89Zm3.1-2.27c.07-1.17-.56-2-1.46-2.05a1.88,1.88,0,0,0-1.64,2.05Z"/><path class="cls-1" d="M126.42,71.47c.11.67.23,1.34.32,2a.35.35,0,0,1-.2.26,6.55,6.55,0,0,1-4.92.2,3.89,3.89,0,0,1-2.36-2.66,7,7,0,0,1,.8-6.19,3.9,3.9,0,0,1,4.26-1.58,3.48,3.48,0,0,1,2.38,2.16,8.08,8.08,0,0,1,.51,4c0,.28-.18.31-.4.31l-4.72,0c-.17,0-.33,0-.5,0a1.76,1.76,0,0,0,1.11,1.71,3.84,3.84,0,0,0,2.27.2C125.44,71.73,125.9,71.59,126.42,71.47Zm-1.75-3.84c0-1.22-.57-2-1.46-2.06a1.88,1.88,0,0,0-1.65,2.06Z"/><path class="cls-1" d="M209.41,63.63h1.11c0-.54,0-1.05,0-1.55a.46.46,0,0,1,.38-.52c.76-.23,1.52-.48,2.33-.74v2.81c.56,0,1.07,0,1.58,0,.3,0,.4.08.39.39,0,.66,0,1.33,0,2h-1.94c0,1.05,0,2.05,0,3a10.69,10.69,0,0,0,.06,1.5c.12.89.54,1.16,1.43,1l.36,0v2.48a4.38,4.38,0,0,1-2.68.11,2.52,2.52,0,0,1-1.73-2.2,12.65,12.65,0,0,1-.15-1.75c0-1.21,0-2.43,0-3.64v-.51h-1.11Z"/><path class="cls-1" d="M28.85,66.09H27.72V63.66l1.13,0c0-.52,0-1,0-1.54a.43.43,0,0,1,.37-.51c.76-.23,1.52-.48,2.33-.74v2.8h1.93v2.44H31.66c-.06.07-.09.09-.09.12,0,1.42,0,2.86,0,4.28.05,1,.49,1.32,1.5,1.17l.33,0c0,.78,0,1.53,0,2.28a.38.38,0,0,1-.25.27,8.38,8.38,0,0,1-2,.14A2.46,2.46,0,0,1,29,71.81c-.11-1.19-.1-2.39-.12-3.59C28.84,67.52,28.85,66.82,28.85,66.09Z"/><path class="cls-1" d="M149.7,59h2.71V74.06H149.7Z"/><path class="cls-1" d="M73,74.07h-2.7V59H73Z"/><path class="cls-1" d="M243.25,74.07H240.5V63.67h2.28l.11,1.71H243l.24-.5a2.36,2.36,0,0,1,2.4-1.45c.11,0,.29.17.29.26,0,.92,0,1.85,0,2.82l-.5,0a1.81,1.81,0,0,0-2.13,1.88c-.05,1.63,0,3.26,0,4.89Z"/><path class="cls-1" d="M37.77,74.08H35.09V63.66h2.68Z"/><path class="cls-1" d="M38,60.6a1.56,1.56,0,0,1-1.57,1.71,1.36,1.36,0,0,1-1.32-.85,1.94,1.94,0,0,1,.19-2.07,1.41,1.41,0,0,1,1.53-.51A1.59,1.59,0,0,1,38,60.6Z"/></g></g></svg>